<?xml version="1.0" encoding="UTF-8" standalone="no"?>
<svg width="31px" height="44px" viewBox="0 0 31 44" version="1.1" xmlns="http://www.w3.org/2000/svg" xmlns:xlink="http://www.w3.org/1999/xlink">
    <!-- Generator: Sketch 39.1 (31720) - http://www.bohemiancoding.com/sketch -->
    <title>hotels-ico</title>
    <desc>Created with Sketch.</desc>
    <defs></defs>
    <g id="Page-1" stroke="none" stroke-width="1" fill="none" fill-rule="evenodd">
        <g id="hotels-ico">
            <ellipse id="Oval-2" fill="#FFFFFF" cx="15.7268183" cy="15.7268183" rx="12.5450001" ry="12.5450001"></ellipse>
            <g id="Group-2-Copy">
                <g id="noun_198300_cc" fill="#7AB088">
                    <g id="Group">
                        <g transform="translate(0.000000, 0.302237)" id="Shape">
                            <path d="M15.4997637,0.171612483 C7.19701636,0.171631437 0.46667353,6.96181289 0.466604485,15.3378497 C0.466604485,23.7139102 15.9574755,42.8176865 15.9574755,42.8176865 C15.9574755,42.8176865 30.5334063,23.7139102 30.5334063,15.3378497 C30.5334063,6.96181289 23.8024416,0.171631437 15.4997637,0.171612483 L15.4997637,0.171612483 Z M15.4997637,3.25010834 C22.1172081,3.25010311 27.4817165,8.66196326 27.4817419,15.3378497 C27.4817139,22.0137342 22.1172062,27.4255915 15.4997637,27.4255863 C8.88234805,27.4255533 3.51788218,22.0137072 3.51785417,15.3378497 C3.51787959,8.66199028 8.88234621,3.25014131 15.4997637,3.25010834 L15.4997637,3.25010834 Z"></path>
                        </g>
                    </g>
                </g>
                <g id="noun_502612_cc" transform="translate(7.515152, 9.950747)" fill="#000000">
                    <g id="Group">
                        <g transform="translate(0.000000, 0.000000)" id="Shape">
                            <path d="M16.7158442,4.07506793 C16.7158442,2.44030231 15.3631169,1.11353601 13.6963636,1.11353601 L7.6574026,1.11353601 L7.6574026,6.27844769 L1.61844156,6.27844769 L1.61844156,0.0947690217 L0.120779221,0.0947690217 L0.120779221,10.2350543 L1.61844156,10.2350543 L1.61844156,8.48182745 L15.194026,8.48182745 L15.194026,10.2350543 L16.6916883,10.2350543 L16.7158442,4.07506793 L16.7158442,4.07506793 Z"></path>
                            <path d="M2.39142857,3.34060802 C2.39142857,4.5726053 3.40597403,5.56768003 4.66207792,5.56768003 C5.91818182,5.56768003 6.93272727,4.5726053 6.93272727,3.34060802 C6.93272727,2.10861073 5.91818182,1.11353601 4.66207792,1.11353601 C3.40597403,1.11353601 2.39142857,2.10861073 2.39142857,3.34060802 L2.39142857,3.34060802 Z"></path>
                        </g>
                    </g>
                </g>
            </g>
        </g>
    </g>
</svg>