<?xml version="1.0" encoding="UTF-8" standalone="no"?>
<svg width="30px" height="42px" viewBox="0 0 30 42" version="1.1" xmlns="http://www.w3.org/2000/svg" xmlns:xlink="http://www.w3.org/1999/xlink">
    <!-- Generator: Sketch 39.1 (31720) - http://www.bohemiancoding.com/sketch -->
    <title>church-ico</title>
    <desc>Created with Sketch.</desc>
    <defs></defs>
    <g id="Page-1" stroke="none" stroke-width="1" fill="none" fill-rule="evenodd">
        <g id="church-ico">
            <g id="noun_198300_cc-copy">
                <g id="Group">
                    <ellipse id="Oval-2" fill="#FFFFFF" cx="15.2272727" cy="15.2272727" rx="12.0454545" ry="12.0454545"></ellipse>
                    <g transform="translate(0.000000, 0.289927)" id="Shape">
                        <path d="M14.9997714,0.164622727 C6.96485455,0.164640909 0.451619545,6.67825909 0.451552727,14.7131409 C0.451552727,22.7480455 15.4427182,41.0737273 15.4427182,41.0737273 C15.4427182,41.0737273 29.5484577,22.7480455 29.5484577,14.7131409 C29.5484577,6.67825909 23.0346209,0.164640909 14.9997714,0.164622727 L14.9997714,0.164622727 Z M14.9997714,3.11773182 C21.4037497,3.1177268 26.5952095,8.30916254 26.5952341,14.7131409 C26.595207,21.1171175 21.403748,26.3085505 14.9997714,26.3085455 C8.59582069,26.3085138 3.40440211,21.1170916 3.404375,14.7131409 C3.4043996,8.30918846 8.59581892,3.11776345 14.9997714,3.11773182 L14.9997714,3.11773182 Z" fill="#4998F3"></path>
                        <path d="M10.9565311,12.7669941 L7.89213712,14.3659948 C7.79101212,14.4187024 7.72727273,14.5235047 7.72727273,14.6375002 L7.72727273,19.5405306 C7.72727273,19.7096851 7.86455758,19.84697 8.03371213,19.84697 L11.0981061,19.84697 C11.2672607,19.84697 11.4045455,19.7096851 11.4045455,19.5405306 L11.4045455,13.0384994 C11.4045455,12.9312456 11.3487736,12.8319592 11.2568417,12.7761872 C11.1649099,12.7210282 11.0509145,12.7173509 10.9565311,12.7669941 L10.9565311,12.7669941 Z M10.7916667,17.7018942 C10.7916667,17.8710487 10.6543819,18.0083336 10.4852273,18.0083336 L8.64659093,18.0083336 C8.47743638,18.0083336 8.34015153,17.8710487 8.34015153,17.7018942 L8.34015153,16.1696972 C8.34015153,15.4936918 8.88990381,14.9439396 9.56590913,14.9439396 C10.2419144,14.9439396 10.7916667,15.4936918 10.7916667,16.1696972 L10.7916667,17.7018942 L10.7916667,17.7018942 Z M22.2721124,14.3659948 L19.2077184,12.7669941 C19.1121093,12.7173509 18.9987267,12.721641 18.9067949,12.7768001 C18.8148631,12.8325721 18.7590911,12.9318585 18.7590911,13.0391122 L18.7590911,19.5405306 C18.7590911,19.7096851 18.896376,19.84697 19.0655305,19.84697 L22.1299245,19.84697 C22.2990791,19.84697 22.4363639,19.7096851 22.4363639,19.5405306 L22.4363639,14.6375002 C22.4363639,14.5235047 22.3726245,14.4187024 22.2721124,14.3659948 L22.2721124,14.3659948 Z M21.8234851,17.7018942 C21.8234851,17.8710487 21.6862003,18.0083336 21.5170457,18.0083336 L19.6784093,18.0083336 C19.5092548,18.0083336 19.3719699,17.8710487 19.3719699,17.7018942 L19.3719699,16.1696972 C19.3719699,15.4936918 19.9217222,14.9439396 20.5977275,14.9439396 C21.2737328,14.9439396 21.8234851,15.4936918 21.8234851,16.1696972 L21.8234851,17.7018942 L21.8234851,17.7018942 Z M19.3609381,11.6564577 C19.3983237,11.5246887 19.3437775,11.3837266 19.2267176,11.3120198 L15.3882577,8.9499849 L15.3882577,7.58939396 L16.0011365,7.58939396 C16.1702911,7.58939396 16.3075759,7.45210911 16.3075759,7.28295456 C16.3075759,7.11380001 16.1702911,6.97651516 16.0011365,6.97651516 L15.3882577,6.97651516 L15.3882577,6.67007576 C15.3882577,6.50092121 15.2509729,6.36363636 15.0818183,6.36363636 C14.9126638,6.36363636 14.7753789,6.50092121 14.7753789,6.67007576 L14.7753789,6.97651516 L14.1625001,6.97651516 C13.9933456,6.97651516 13.8560607,7.11380001 13.8560607,7.28295456 C13.8560607,7.45210911 13.9933456,7.58939396 14.1625001,7.58939396 L14.7753789,7.58939396 L14.7753789,8.95059778 L10.9375319,11.3126327 C10.8210849,11.3843395 10.7659258,11.5253016 10.8033114,11.6570706 C10.8413099,11.7888395 10.9608213,11.8795456 11.0981061,11.8795456 L12.0174243,11.8795456 L12.0174243,20.7662882 C12.0174243,20.9354427 12.1547092,21.0727276 12.3238637,21.0727276 L13.5496213,21.0727276 C13.7187759,21.0727276 13.8560607,20.9354427 13.8560607,20.7662882 L13.8560607,16.1696972 C13.8560607,15.4936918 14.405813,14.9439396 15.0818183,14.9439396 C15.7578236,14.9439396 16.3075759,15.4936918 16.3075759,16.1696972 L16.3075759,20.7662882 C16.3075759,20.9354427 16.4448608,21.0727276 16.6140153,21.0727276 L17.8397729,21.0727276 C18.0089275,21.0727276 18.1462123,20.9354427 18.1462123,20.7662882 L18.1462123,11.8795456 L19.0655305,11.8795456 C19.2028154,11.8795456 19.3229396,11.7888395 19.3609381,11.6564577 L19.3609381,11.6564577 Z" fill="#000000"></path>
                    </g>
                </g>
            </g>
        </g>
    </g>
</svg>